<mxfile host="app.diagrams.net" modified="2023-12-30T12:49:56.122Z" agent="Mozilla/5.0 (Macintosh; Intel Mac OS X 10_15_7) AppleWebKit/537.36 (KHTML, like Gecko) Chrome/120.0.0.0 Safari/537.36" version="22.1.16" etag="ip-vgO3NleRJ_vidnkgU" type="github">
  <diagram name="Page-1" id="Et47rpy0V3OSvvSCWUpJ">
    <mxGraphModel>
      <root>
        <mxCell id="0" />
        <mxCell id="1" parent="0" />
      </root>
    </mxGraphModel>
  </diagram>
</mxfile>
